<!-- Generated by IcoMoon.io -->
<svg version="1.1" xmlns="http://www.w3.org/2000/svg" width="20" height="20" viewBox="0 0 20 20">
<title>github</title>
<path fill="#829984" d="M6.667 15.186c-0.721 0.147-1.211 0.101-1.558-0.009-0.192-0.061-0.359-0.147-0.512-0.252-0.343-0.237-0.606-0.563-0.933-0.977-0.297-0.376-0.708-0.922-1.292-1.23-0.154-0.082-0.322-0.148-0.503-0.193-0.447-0.112-0.899 0.16-1.011 0.607s0.16 0.899 0.607 1.011l0.129 0.050c0.21 0.111 0.406 0.337 0.762 0.788 0.305 0.387 0.713 0.915 1.294 1.316 0.277 0.191 0.593 0.355 0.957 0.47 0.593 0.188 1.271 0.233 2.061 0.113l-0.001 1.454c0 0.46 0.373 0.833 0.833 0.833s0.833-0.373 0.833-0.833v-3.225c0-0.017-0.001-0.037-0.002-0.057-0.005-0.070-0.006-0.14-0.003-0.209 0.017-0.474 0.201-0.938 0.554-1.304 0.121-0.124 0.205-0.289 0.228-0.477 0.057-0.457-0.268-0.873-0.724-0.93-0.283-0.035-0.564-0.078-0.838-0.133-0.658-0.13-1.265-0.321-1.789-0.611-1.098-0.607-2.009-1.745-2.009-4.267-0.006-0.922 0.333-1.848 1.020-2.57 0.214-0.228 0.292-0.56 0.178-0.867-0.233-0.624-0.284-1.317-0.118-1.993 0.409 0.089 1.129 0.347 2.206 1.069 0.197 0.131 0.444 0.178 0.688 0.11 1.664-0.464 3.535-0.502 5.392 0.002 0.226 0.061 0.474 0.027 0.682-0.112 1.078-0.722 1.797-0.979 2.206-1.068 0.157 0.638 0.131 1.329-0.117 1.993-0.107 0.293-0.048 0.629 0.177 0.867 0.632 0.663 1.020 1.56 1.020 2.55 0 2.563-0.928 3.704-2.037 4.303-0.519 0.28-1.119 0.462-1.769 0.583-0.268 0.050-0.542 0.088-0.819 0.119-0.175 0.019-0.348 0.095-0.487 0.229-0.331 0.32-0.34 0.848-0.020 1.178 0.056 0.057 0.108 0.119 0.157 0.183 0.284 0.374 0.435 0.846 0.396 1.348 0 0.020-0.001 0.043-0.003 0.065v3.225c0 0.46 0.373 0.833 0.833 0.833s0.833-0.373 0.833-0.833v-3.16c0.043-0.57-0.047-1.119-0.243-1.618 0.648-0.143 1.302-0.356 1.914-0.686 1.736-0.937 2.913-2.702 2.913-5.769 0-1.252-0.43-2.406-1.149-3.317 0.296-1.121 0.188-2.272-0.244-3.277-0.102-0.236-0.299-0.402-0.529-0.47-0.297-0.088-1.443-0.257-3.644 1.135-1.894-0.451-3.798-0.424-5.538-0.002-2.199-1.391-3.344-1.222-3.642-1.133-0.247 0.073-0.434 0.25-0.529 0.471-0.462 1.077-0.52 2.227-0.243 3.277-0.775 0.982-1.156 2.168-1.149 3.348 0 3.018 1.158 4.769 2.868 5.716 0.627 0.347 1.3 0.571 1.964 0.722-0.154 0.39-0.239 0.801-0.253 1.214-0.004 0.117-0.003 0.235 0.004 0.353z"></path>
</svg>
